<?xml version="1.0" encoding="UTF-8"?>
<svg id="Layer_1" data-name="Layer 1" xmlns="http://www.w3.org/2000/svg" viewBox="0 0 740.6835 414.3625">
  <defs>
    <style>
      .cls-1 {
        fill: #d22027;
      }
    </style>
  </defs>
  <path class="cls-1" d="M130.9662,108.8555c-.007-.0057-.0141-.0113-.0211-.017-.0895.1888-.1946.3665-.3079.5382.5833.3966,1.1633.8004,1.7359,1.2208.0543-.174.1002-.3506.1507-.5258-.3084-.23-.6138-.4644-.9152-.7037-.2145-.0331-.4176-.1531-.5398-.3374-.0374-.0564-.0662-.1181-.1026-.1752Z"/>
  <path class="cls-1" d="M179.0752,270.4258l-5.7897-4.0026c-.4927-.3407-1.9723-.3299-3.1436-.2559l-8.1008-20.0685-.23-.2051c-.7247.4801-1.5829.8206-2.5742.9762l.2108.2001-7.0206,7.098-5.7222,17.5624-.1029-.0399c.0228.6536-.0331,1.3084-.1677,1.9459.0087.1266.0189.2532.0206.3803l.0911.0358c.2091,2.7272-.3129,6.7282-1.4381,9.5935l-5.2814,13.4499c17.7703,3.7795,33.8947,2.7008,50.3525-.3973,1.1977-5.5653,4.7019-6.0292,8.3377-8.5122l-19.4416-17.7605Z"/>
  <path class="cls-1" d="M134.6301,215.8747c.5043-1.7762,1.6409-3.3433,3.4148-4.1802.4667-.2846.9831-.5475,1.5516-.7872-3.3667-8.8344-.5096-12.1703-6.7217-21.144-6.1709-8.9143-9.8256-19.0357-14.4416-28.8568-2.6919-5.7273-7.9146-10.1253-7.8142-16.6034l8.2418,13.1457,6.4838,8.1331,4.7636-17.9149-9.4277-15.9981c-12.0958,4.5114-16.8561-6.8173-24.7856-2.7745l-9.3741,4.7794-13.7565-3.2146.0421-.0323c-.0025-.001-.0052-.0018-.0077-.0028-.0185-.0013-.0349.0026-.0546-.0022-.3885-.0952-.7871-.1433-1.1784-.2253-.2288-.0479-.4673-.1085-.6918-.1976-.0168.0031-.0328.0105-.05.0104-.156-.0007-.3142-.0231-.4648-.0636-.0704-.0189-.1365-.0505-.2046-.0761-.0726-.0044-.145-.0066-.2185-.0249-.0535-.0133-.0935-.038-.1262-.0676l-8.738-2.0988-3.7224,2.8199.5661-3.1469c.1271-.707-1.4888-2.0422-2.2221-2.2759l-9.8749-3.1467c-.3337-.0203-.6561-.1204-.9781-.2071-.0491-.0132-.0989-.0233-.1483-.035-.246.0179-.4922.0272-.7385.0217-.0215.0096-.043.0181-.0651.0298-.0545.0289-.1131.0397-.171.0373-.011.001-.0205.0076-.0319.0071h-.1333l-.0029.0118-5.9597.7265c-7.4405.9071-8.8075,6.2751-8.5674,12.2948l3.2481,81.4589c.3296-.0186.6578-.0023.9842.0301.5153-.1135,1.0671-.1776,1.6605-.1776.1765,0,.3434.0146.513.0252.1807-.2938.4546-.5034.8358-.5034,1.0677,0,2.1325.021,3.1892.1563.1822-.0703.3742-.1143.5777-.097,5.8483.4975,11.7014-.703,17.5267.3117.2874.0501.5282.2023.724.404l76.0672-.3049c.0875-.0872.1885-.1622.2818-.2443Z"/>
  <path class="cls-1" d="M134.8423,111.5487c-.3682-.1859-.7219-.3962-1.07-.6159-.0594.1928-.1227.3835-.1851.575.55.4304,1.0955.8722,1.6325,1.3355,2.0925,1.8053,5.0879,8.1018,9.3979,5.098l30.7251-21.4134,1.581-14.8215,7.6419-8.0836c-5.7156.2165-11.1282.1993-15.5532,1.8705-5.1032,1.9273-8.4009,4.3397-14.3095,2.5118-2.9958-.9268-9.4039-.8014-11.6071,1.7307l-8.0782,9.2843.3685,8.8655,5.2369,1.7777c-.9587,3.7499-.3826,8.2193-5.1446,10.5925.0306.0158.0587.0359.0894.0514.3583.1809.4305.6566.2578.9835-.1889.3575-.6482.4271-.9834.2578Z"/>
  <path class="cls-1" d="M132.0833,107.9179c.4328.3466.8586.6843,1.2873,1.0001.5583.4113,1.141.7889,1.7453,1.1294l2.9593-6.8946-.1757-2.6479c-.0494-.744-3.3852-.2765-3.6727.4238l-2.5701,6.2607c.1348.2474.2796.4886.4266.7285Z"/>
  <path class="cls-1" d="M229.7262,254.7922c-2.6144-1.658-5.3621-3.1464-7.7949-3.4689l-23.3704-3.0983-3.2583,8.3213c-5.5059-5.7479-10.259-11.7065-13.9721-18.8944-7.1758-13.8911-18.9348-13.5156-18.1781-25.3561.4765-7.4563-2.2353-16.2189-9.4031-19.5658-3.7503-1.7512-4.3635-3.4977-6.0967-7.2083-3.5977-7.7023-8.7212-15.4248-13.4982-22.5724-.7753-1.16-3.0953-2.2977-5.3207-3.5666l2.6274-9.6656,10.599.7336,12.8155-13.1648-5.4889-8.9093,11.8948-4.5482c5.3932-2.0622,9.6936.5377,13.5443,3.285l30.0203,21.4182,22.1596,1.7346,2.9329,3.7358,8.0721.3477c2.9988,6.185,7.3566,10.7635,12.9402,14.9239,1.3864,6.8928,3.8072,13.449,9.0398,18.344l7.703,6.7585,8.5073-.5595c.2329,6.9839.3662,12.4957-1.4563,18.7477l-5.3489,18.3491-29.6108,9.7613-10.0591,14.1174Z"/>
  <path class="cls-1" d="M134.7399,86.2423c-.0343-4.3316.7534-6.9927,1.7845-10.5305-10.1166,5.0792-11.3752-2.429-18.5186,4.2074-2.6459,2.4581-10.7785,2.1048-13.5377-.0977l-8.1481-6.5041c-4.3797,1.2178-3.8747,7.0275-7.1878,7.7349-.9858.2105-3.3802-1.2233-3.8742-2.1817-1.9424-3.7686-5.6399-5.3133-10.1048-6.3668l-3.8157-.9003c-1.072-.2529-.9416-3.4316-.7767-4.7557.9332-7.4936-8.9382-6.2872-4.6697-11.779l2.8388-3.6524c.6559-.8438-1.8904-3.4414-1.8553-4.5621.202-6.4442,3.2992-14.3576,8.2461-19.2372,6.4315-1.9846,13.7425,4.3596,17.1856,2.6628l11.1534-5.4966c8.0627-3.9734,17.5726-2.3558,25.7902.3498,2.4671,3.4101,5.4686,4.714,9.6292,5.1385,3.0416,1.2851,7.2365,2.9883,10.1924,2.5596,5.2446-.7607,8.5634-.6787,13.7488-.317,3.8454.2682,9.5761-3.5235,13.4116-4.3742l10.1188-.1137c5.2441-.0589,8.9889,4.429,9.1897,9.7031.1468,3.8565,1.1865,6.231,5.8337,7.7697l-6.232,8.2489,4.8846,19.001-11.164-2.302-12.5194,1.713c-2.7772.38-6.7029.4748-8.7807,1.6519-3.7879,2.1459-6.646,3.4979-11.0331,2.6147-4.0144-.8082-11.2801-1.7015-14.2259,1.5267l-7.5637,8.2887Z"/>
  <path class="cls-1" d="M261.3514,158.1597l-10.4803-18.0251-8.0607-2.0254-6.9835,1.2051-6.2858-19.8198c-6.251-4.4388-12.7211-9.4281-17.8134-15.3882l6.9078-17.944-11.6543-4.5016-4.4561-9.714c-2.259-4.9245-3.5258-10.5859-4.7106-16.2815-.5889-2.8309,2.9333-7.1526,6.0063-8.1548,3.6412,5.4148,11.6295,8.9881,16.6421,4.9103,3.3191-2.7002,5.7189-6.5159,10.8728-4.0878l.1486,9.3662c1.9002,3.8679,4.8947,7.8433,7.7013,10.791l7.551.6689c2.7713,1.2266,7.8049,5.4846,10.7508,5.331l18.28-.953-.0842,91.1116-14.3317-6.4889Z"/>
  <path class="cls-1" d="M141.3064,148.1403c-2.4564.3725-6.5763.0706-9.4933-.3164l1.3058-13.8251,2.8917-16.6751,6.9359,3.7321,16.1967-10.2883,2.9671,10.6368-15.2803,6.0796,5.5208,9.402-11.0444,11.2544Z"/>
  <path class="cls-1" d="M132.6544,125.2171l-2.0358,19.8842-6.2867-9.9433-1.5123-2.9831c-.4312-.8505,1.5443-2.6941,1.9163-3.625l6.1055-15.2806c2.8263.9923,3.5155,3.2238,3.1395,6.0087-.668,4.9474-6.2227,3.4015-6.1846,8.0566.0074.9094,1.5312,1.9164,2.7765,2.1241.0941-2.013-1.5488-2.7249,2.0817-4.2415Z"/>
  <path class="cls-1" d="M236.9528,152.4825c.299-.0054-2.687.0541-4.0861.071-1.2611.0152-2.2248-1.858-3.465-3.4865l-5.6235-1.1944c.3905-1.6606,2.6079-5.9532,4.8609-6.8745,2.3316-.9535,6.877.1094,8.5934.787-1.4277,1.7812-2.971,3.3277-2.972,4.4154-.0011,1.2691,1.0096,2.9776,2.6922,6.282Z"/>
  <path class="cls-1" d="M261.0276,226.1392c-3.4186.051-6.9323-4.6464-6.4176-8.6109.1767-1.3615,2.6173-3.6486,3.9918-3.4721,3.0904,1.7442,4.9669,7.53,2.4258,12.083Z"/>
  <path class="cls-1" d="M277.8789,225.3159l-8.7454,9.938-9.4545.466c-.0922.0045-.1964.0297-.3046.0632.2893.2378.5881.4647.8773.7022-.0615-.1738.0272-.4075.2667-.4075.3816,0,.381.5921,0,.5921-.0246,0-.0432-.0085-.0646-.0131.2439.2101.4783.4309.6876.6799.0464.0552.0723.1211.0794.1876.6381.5018,1.2768,1.0028,1.9198,1.4984,3.8271,2.9499,7.8922,5.6786,12.634,6.7938.513-1.7292-2.6248-3.4585-3.885-3.0768l1.7698-.8718c.263-.1295.2335-1.0562.3591-1.3588l2.1444-5.1663,1.8175-4.2138c.5503-1.2759.1915-4.244-.1016-5.8133Z"/>
  <path class="cls-1" d="M246.9977,239.4552c.0594.0972.1022.2087.1022.3143,0,.1204-.0501.2401-.1206.3416.2419.0787.4116.3043.4235.5671.0146.3275-.288.6013-.6036.6036-.1056.0007-.2094.0126-.3142.0199-.0209.0038-.042.0074-.0629.0115-.058.0114-.1156.0247-.1728.0396-.1106.0288-.2195.0639-.3264.1045-.0064.0025-.0138.005-.0206.0081-.0061.0037-.0226.0113-.0406.0172-.047.0219-.0939.0437-.1401.0671-.0572.029-.111.0633-.1664.095-.0103.1718-.0894.3417-.2688.4632-1.4615.9899-2.6671,2.3479-3.8196,3.6703-2.4285,2.7864-4.6398,5.8009-7.3941,8.2854-2.2753,2.0524-5.1506,3.8518-8.3335,3.0983-.3182-.0753-.4369-.3244-.4216-.5748-.7825-.5147-1.4353-1.4098-1.7659-2.4652l-13.0682-2.0509c-3.6302-.5697-7.4825-.9255-10.7846-.7428l-1.4113,3.4152.0032-.2088c-.0287.0689-.0694.137-.133.2005-.9117.91-1.8393,1.8076-2.7689,2.7043.066.0673.1326.1362.1985.2033.1675,4.2041.7292,8.9116,1.9998,13.103l3.2733,10.7979c.5895,1.9448,2.7957,4.5553,5.6466,3.4781,10.6803-4.0359,21.2003-8.4858,31.3829-13.732l15.3296-7.8979c3.5694-1.839,6.6226-3.962,6.9435-8.2872l5.4587-4.8512-7.5245-14.5262-11.0996,3.7282Z"/>
  <path class="cls-1" d="M32.8577,74.1677l2.6326,11.9513c-.472,1.9005-1.3788,2.312-2.2222.5787l-14.9836-6.7544c-1.5071-4.5757-3.5102-8.9517-5.8757-12.7869,2.9289-7.3771,11.5505-5.7355,19.2929-3.2227-5.0654-5.5524-13.0514-3.2063-19.6628-5.5902l-3.4141-2.3975c-.7599-.5336.233-3.4437.563-4.3299L0,41.1731l5.3319-8.1486c2.2578-3.4505,3.9595-6.8959,5.6819-11.328l15.1824-6.0251,16.045-5.8423c6.57,1.7855,13.5861,4.0003,20.6463,2.3439C64.9349,7.5023,69.3604.1279,75.1772.0023c6.1606-.133,10.7486,5.5224,14.8801,8.6867,3.7366,2.8619,6.0539,4.7633,6.2917,9.9885l-12.1271-.1982c-5.4255,3.9907-12.5668,7.9985-18.9443,9.1546-2.0962-3.3787-4.3526-4.2354-8.4288-4.9094-5.5626-.9198-11.5948-2.0697-14.1633,4.749-.9862,2.6181-4.2275,5.3753-6.8868,3.7847l-7.6825-4.5951c1.4452,10.0345,8.3849,25.1627,14.6646,28.2433,4.6275,2.2701,6.9359,5.4766,8.1049,10.0955l-3.2287-.0898c-.739-.0205-1.135,1.9575-1.766,4.0913l-9.5145-1.3138,1.9575,5.3772c.4141,1.1376-2.7683,1.468-5.4763,1.1008Z"/>
  <path class="cls-1" d="M651.1318,227.1897l-13.8843.6648c-6.2443.299-10.6054-2.6379-13.3994-7.4517l-19.6534-33.8606c-1.9324-3.3293-3.862-5.5055-8.0805-7.193l.0651,48.1222c-7.2965,1.3118-13.0395.7145-21.3436-.4033l-.0062-88.0923,22.0075-.0996,10.0696,16.5787,20.2475,31.4775c3.8541-5.1764,2.205-9.9287,2.1957-15.2802l-.039-22.5025.0547-10.7699,21.3187.0645.4478,88.7454Z"/>
  <path class="cls-1" d="M740.4168,188.5849c-1.7929,21.3072-16.9079,38.4345-38.6434,38.6043l-38.5327.301.1481-88.8966,37.2376-.2511c9.1891-.062,18.5379,5.2698,25.913,9.8263,11.5943,10.698,15.2254,24.3962,13.8775,40.4159ZM712.8809,164.1985c-2.2285-2.7229-8.0514-6.2848-11.0756-6.4063l-17.7278-.712.0516,52.2974c8.8718.5427,19.217,1.1689,26.4935-5.3258,11.021-9.8368,12.0438-27.8969,2.2584-39.8533Z"/>
  <path class="cls-1" d="M381.7952,181.0597c5.5106,5.2396,7.8589,9.4962,9.0984,16.0937,2.7452,14.6127-5.6093,28.2707-21.6897,29.7701l-43.9686.292.1272-88.6455,35.1376-.0946c9.6534-.026,19.8303,3.176,25.4818,11.868,3.5158,5.4073,3.9841,14.6635,2.165,20.927l-6.3517,9.7891ZM359.1278,173.7067c4.5278.1885,8.4994-3.3772,9.3949-7.4155.6308-2.8448-2.02-9.813-5.1082-9.9108l-18.2608-.5783.5271,17.3448,13.447.5599ZM362.8584,209.8439c6.7129-.3828,8.4166-7.4236,7.4752-12.0367-1.0379-5.0857-5.4385-8.2464-11.2787-8.1731l-14.0023.1758.1012,21.0436,17.7046-1.0096Z"/>
  <path class="cls-1" d="M468.8352,217.9772c-16.7765,15.5914-44.8256,15.3834-60.4704-1.5059-16.431-17.738-16.16-46.0099-1.9323-64.5426,8.9985-11.7212,22.2865-15.5578,36.7259-14.9112,15.804.7077,30.4667,11.4787,35.6624,26.8788,5.9939,17.7661,4.6559,40.4736-9.9856,54.0808ZM458.594,195.7597c4.0534-12.3257,2.7414-27.6453-7.3769-35.7713-9.6262-7.7308-23.5382-4.2832-29.0845,5.9065-5.7807,10.6203-5.7701,23.5351-.0075,33.708,4.5454,8.0241,11.5874,11.6909,20.3728,10.553,7.1377-.9245,13.182-5.5348,16.0961-14.3961Z"/>
  <path class="cls-1" d="M347.6515,79.9624l-.4864,18.4552,20.3211-.4285,19.9267.4561-.6893,18.9154-38.8923.243-22.4849-.0251-.0883-93.2316,61.3972-.3504-.0045,19.6136-38.5233-.1728c-.8432,5.1735-1.0911,11.1185-.6609,17.1212l33.5234-.0769.5191,19.3112-33.8578.1697Z"/>
  <path class="cls-1" d="M537.4929,117.3199c-22.7438,4.289-44.3373-1.7742-48.5048-24.9408l20.3077-4.8153c1.9233,9.9072,10.5975,14.9612,20.4839,12.758,3.0188-.6727,6.7554-3.4527,7.5802-5.8035,1.0951-3.1213-.0945-9.5227-3.2033-10.5937l-30.4112-10.4771c-13.3196-4.5888-16.9625-28.0992-6.9419-39.7548,8.3236-9.6817,21.1387-11.7953,33.5569-10.7325,14.228,1.2177,26.3198,9.8194,27.9702,25.147l-19.6277,4.3845c-2.961-8.207-8.462-11.511-16.9425-10.5922-3.6654.3971-7.9367,3.2916-8.5875,6.6962-.6628,3.4675,2.3102,8.1611,5.9649,9.27l26.1967,7.9488c11.3501,3.4439,16.6294,17.2676,15.1398,28.228-1.5524,11.4221-10.3846,20.9019-22.9813,23.2774Z"/>
  <path class="cls-1" d="M541.8069,138.8753l20.7567-.5331.0153,63.7375c-4.8194,18.3866-19.5219,27.9824-37.8264,27.4088-18.1908-.57-32.5746-11.8458-33.9334-31.0631l-.0308-59.654,20.9966-.2749.6534,59.1175c.0983,8.8931,8.0929,13.0954,14.9662,12.6909,9.0391-.5319,13.0999-5.7031,14.1539-14.2484l.2484-57.1812Z"/>
  <polygon class="cls-1" points="613.3423 117.2928 590.8666 116.901 590.8874 43.5987 564.7252 43.5148 564.9802 24.3299 639.8224 24.0434 639.9377 43.4736 613.3167 43.5321 613.3423 117.2928"/>
  <path class="cls-1" d="M456.6183,97.7741l-34.6851.2539-7.7996,19.1382-22.4394-.4048,34.8768-92.2539,25.5288-.4242,35.2525,92.7244c-8.0499,1.4677-14.6061,1.5748-22.6116,1.1352l-8.1225-20.1687ZM450.5153,79.8197l-11.4277-32.1127-11.426,32.7366,22.8537-.6239Z"/>
  <path class="cls-1" d="M382.9748,286.405c-.9879,15.1236-11.2325,27.7225-26.5635,28.1021l-30.5925.7575.0121-61.5475,28.5601.5481c17.5522.3368,29.7444,14.3744,28.5839,32.1398ZM361.3522,300.3962c11.1155-7.2632,10.3356-24.7249-.0321-31.4056-6.1061-3.9346-14.2374-3.6833-21.5473-3.3597l.0079,37.688c7.6492.3252,15.6301.9596,21.5716-2.9227Z"/>
  <path class="cls-1" d="M446.3103,315.2823l-.4252-37.919-12.7946,22.4096c-1.4547,2.5479-9.9482,3.3456-11.4818.9516l-14.3211-22.3544-.1096,36.6976-13.5241-.1965-.0766-60.1617c3.265-.9458,10.0483-1.0442,13.7408-.2479l19.4032,32.3531,19.3854-32.7995,13.4428-.0954.3497,60.8181-13.5887.5443Z"/>
  <path class="cls-1" d="M517.0447,295.0976l12.4599,3.09c-4.6174,13.8146-17.053,19.1646-30.2977,18.2025-16.189-1.176-27.4618-12.6594-28.7017-28.7252-1.5541-20.1368,13.5084-36.2225,33.9453-34.8781,11.8678.7807,21.2726,7.1859,24.6827,18.7641l-12.3502,2.6478c-4.2962-8.4638-11.6321-10.6895-19.7245-8.6576-7.4942,1.8816-12.0568,9.9228-12.2205,18.6793-.163,8.722,3.5687,16.4614,11.6947,19.3561,6.9661,2.4815,15.404,1.0146,20.512-8.4789Z"/>
  <g>
    <path class="cls-1" d="M343.1717,367.6574c-1.0151.5078-3.0454,1.0156-5.647,1.0156-6.0273,0-10.5635-3.8066-10.5635-10.8174,0-6.6943,4.5361-11.2305,11.1665-11.2305,2.6646,0,4.3462.5713,5.0757.9521l-.666,2.252c-1.0469-.5078-2.5381-.8877-4.3145-.8877-5.0122,0-8.3433,3.2031-8.3433,8.8184,0,5.2344,3.0137,8.5967,8.2163,8.5967,1.6812,0,3.3945-.3486,4.5044-.8877l.5713,2.1885Z"/>
    <path class="cls-1" d="M360.0833,360.5519c0,5.6787-3.9336,8.1523-7.645,8.1523-4.1558,0-7.3599-3.0449-7.3599-7.8984,0-5.1396,3.3628-8.1533,7.6133-8.1533,4.4097,0,7.3916,3.2041,7.3916,7.8994ZM347.9017,360.7101c0,3.3633,1.9351,5.9004,4.6631,5.9004,2.665,0,4.6636-2.5059,4.6636-5.9639,0-2.6006-1.3008-5.9004-4.6001-5.9004s-4.7266,3.0459-4.7266,5.9639Z"/>
    <path class="cls-1" d="M363.6078,357.1574c0-1.5859-.0317-2.8867-.127-4.1553h2.4741l.1587,2.5371h.0635c.7612-1.459,2.5381-2.8867,5.0757-2.8867,2.126,0,5.4248,1.2695,5.4248,6.5352v9.168h-2.792v-8.8506c0-2.4746-.9199-4.5361-3.5527-4.5361-1.8398,0-3.2676,1.2998-3.7432,2.8545-.127.3496-.1904.8252-.1904,1.3008v9.2314h-2.7915v-11.1982Z"/>
    <path class="cls-1" d="M381.2166,357.1574c0-1.5859-.0312-2.8867-.127-4.1553h2.4746l.1592,2.5371h.0635c.7607-1.459,2.5371-2.8867,5.0752-2.8867,2.126,0,5.4248,1.2695,5.4248,6.5352v9.168h-2.792v-8.8506c0-2.4746-.9199-4.5361-3.5527-4.5361-1.8398,0-3.2676,1.2998-3.7432,2.8545-.127.3496-.1904.8252-.1904,1.3008v9.2314h-2.792v-11.1982Z"/>
    <path class="cls-1" d="M400.3807,361.1867c.0635,3.7744,2.4746,5.3291,5.2666,5.3291,1.998,0,3.2031-.3486,4.25-.793l.4766,1.998c-.9834.4443-2.665.9521-5.1074.9521-4.7266,0-7.5508-3.1094-7.5508-7.7402s2.7285-8.2803,7.2012-8.2803c5.0127,0,6.3447,4.4102,6.3447,7.2334,0,.5703-.0635,1.0146-.0947,1.3008h-10.7861ZM408.5653,359.1876c.0322-1.7764-.7295-4.5361-3.8701-4.5361-2.8232,0-4.0605,2.6006-4.2822,4.5361h8.1523Z"/>
    <path class="cls-1" d="M425.6659,367.7843c-.7295.3809-2.3467.8887-4.4092.8887-4.6318,0-7.6455-3.1406-7.6455-7.8359,0-4.7266,3.2363-8.1523,8.248-8.1523,1.6504,0,3.1094.4121,3.8701.793l-.6338,2.1572c-.666-.3809-1.7129-.7295-3.2363-.7295-3.5205,0-5.4238,2.6006-5.4238,5.8047,0,3.5537,2.2832,5.7422,5.3291,5.7422,1.5859,0,2.6328-.4121,3.4258-.7617l.4756,2.0938Z"/>
    <path class="cls-1" d="M432.7108,348.5919v4.4102h3.9971v2.125h-3.9971v8.2793c0,1.9033.5391,2.9824,2.0938,2.9824.7295,0,1.2686-.0947,1.6172-.1904l.127,2.0938c-.5391.2217-1.3955.3809-2.4736.3809-1.3008,0-2.3477-.4121-3.0137-1.1738-.7939-.8252-1.0791-2.1895-1.0791-3.9971v-8.375h-2.3789v-2.125h2.3789v-3.6807l2.7285-.7295Z"/>
    <path class="cls-1" d="M442.9588,348.6876c.0312.9512-.666,1.7129-1.7764,1.7129-.9834,0-1.6816-.7617-1.6816-1.7129,0-.9834.7295-1.7451,1.7451-1.7451,1.0469,0,1.7129.7617,1.7129,1.7451ZM439.8494,368.3556v-15.3535h2.792v15.3535h-2.792Z"/>
    <path class="cls-1" d="M447.2743,357.1574c0-1.5859-.0312-2.8867-.127-4.1553h2.4746l.1592,2.5371h.0635c.7607-1.459,2.5371-2.8867,5.0752-2.8867,2.126,0,5.4248,1.2695,5.4248,6.5352v9.168h-2.792v-8.8506c0-2.4746-.9199-4.5361-3.5527-4.5361-1.8398,0-3.2676,1.2998-3.7432,2.8545-.127.3496-.1904.8252-.1904,1.3008v9.2314h-2.792v-11.1982Z"/>
    <path class="cls-1" d="M478.1121,353.0021c-.0635,1.1104-.127,2.3467-.127,4.2188v8.9141c0,3.5215-.6973,5.6787-2.1885,7.0107-1.4912,1.3955-3.6484,1.8398-5.583,1.8398-1.8398,0-3.8701-.4443-5.1074-1.2686l.6973-2.126c1.0156.6348,2.6016,1.2061,4.5049,1.2061,2.8555,0,4.9492-1.4912,4.9492-5.3613v-1.7129h-.0635c-.8564,1.4277-2.5059,2.5693-4.8857,2.5693-3.8066,0-6.5352-3.2354-6.5352-7.4863,0-5.2031,3.3945-8.1533,6.916-8.1533,2.665,0,4.124,1.3965,4.79,2.665h.0635l.127-2.3154h2.4424ZM475.2254,359.0607c0-.4756-.0312-.8877-.1582-1.2686-.5078-1.6182-1.8721-2.9502-3.9023-2.9502-2.6641,0-4.5674,2.252-4.5674,5.8047,0,3.0137,1.5225,5.5205,4.5361,5.5205,1.7129,0,3.2676-1.0791,3.8701-2.8555.1582-.4756.2217-1.0156.2217-1.4912v-2.7598Z"/>
    <path class="cls-1" d="M489.4412,347.2599c1.6807-.2539,3.6797-.4443,5.8682-.4443,3.9658,0,6.7891.9199,8.6611,2.665,1.9033,1.7441,3.0137,4.2188,3.0137,7.6768,0,3.4893-1.0791,6.3447-3.0771,8.3115-1.999,1.998-5.2979,3.0771-9.4541,3.0771-1.9668,0-3.6162-.0957-5.0117-.2539v-21.0322ZM492.201,366.1671c.6982.127,1.7129.1582,2.792.1582,5.9004,0,9.1045-3.2988,9.1045-9.0732.0312-5.0439-2.8242-8.2471-8.6611-8.2471-1.4268,0-2.5059.126-3.2354.2852v16.877Z"/>
    <path class="cls-1" d="M512.158,361.1867c.0635,3.7744,2.4746,5.3291,5.2666,5.3291,1.998,0,3.2031-.3486,4.25-.793l.4766,1.998c-.9834.4443-2.665.9521-5.1074.9521-4.7266,0-7.5508-3.1094-7.5508-7.7402s2.7285-8.2803,7.2012-8.2803c5.0127,0,6.3447,4.4102,6.3447,7.2334,0,.5703-.0635,1.0146-.0947,1.3008h-10.7861ZM520.3426,359.1876c.0322-1.7764-.7295-4.5361-3.8701-4.5361-2.8232,0-4.0605,2.6006-4.2822,4.5361h8.1523Z"/>
    <path class="cls-1" d="M526.119,365.5001c.8242.54,2.2832,1.1104,3.6797,1.1104,2.0303,0,2.9814-1.0146,2.9814-2.2842,0-1.332-.793-2.0615-2.8545-2.8232-2.7598-.9834-4.0605-2.5059-4.0605-4.3457,0-2.4746,1.998-4.5049,5.2979-4.5049,1.5537,0,2.918.4443,3.7744.9521l-.6973,2.0303c-.6035-.3809-1.7139-.8887-3.1406-.8887-1.6504,0-2.5703.9521-2.5703,2.0938,0,1.2695.9199,1.8398,2.9189,2.6016,2.665,1.0146,4.0283,2.3477,4.0283,4.6318,0,2.6963-2.0938,4.5996-5.7412,4.5996-1.6816,0-3.2363-.4121-4.3145-1.0469l.6982-2.126Z"/>
    <path class="cls-1" d="M542.4266,348.5919v4.4102h3.9971v2.125h-3.9971v8.2793c0,1.9033.5391,2.9824,2.0938,2.9824.7295,0,1.2686-.0947,1.6172-.1904l.127,2.0938c-.5391.2217-1.3955.3809-2.4736.3809-1.3008,0-2.3477-.4121-3.0137-1.1738-.7939-.8252-1.0791-2.1895-1.0791-3.9971v-8.375h-2.3789v-2.125h2.3789v-3.6807l2.7285-.7295Z"/>
    <path class="cls-1" d="M552.6746,348.6876c.0312.9512-.666,1.7129-1.7764,1.7129-.9834,0-1.6816-.7617-1.6816-1.7129,0-.9834.7295-1.7451,1.7451-1.7451,1.0469,0,1.7129.7617,1.7129,1.7451ZM549.5653,368.3556v-15.3535h2.792v15.3535h-2.792Z"/>
    <path class="cls-1" d="M556.9901,357.1574c0-1.5859-.0312-2.8867-.127-4.1553h2.4746l.1592,2.5371h.0635c.7607-1.459,2.5371-2.8867,5.0752-2.8867,2.126,0,5.4248,1.2695,5.4248,6.5352v9.168h-2.792v-8.8506c0-2.4746-.9199-4.5361-3.5527-4.5361-1.8398,0-3.2676,1.2998-3.7432,2.8545-.127.3496-.1904.8252-.1904,1.3008v9.2314h-2.792v-11.1982Z"/>
    <path class="cls-1" d="M583.1014,368.3556l-.2217-1.9355h-.0957c-.8564,1.2061-2.5059,2.2842-4.6943,2.2842-3.1094,0-4.6953-2.1885-4.6953-4.4092,0-3.7119,3.2988-5.7422,9.2314-5.71v-.3174c0-1.2686-.3486-3.5527-3.4893-3.5527-1.4277,0-2.9189.4443-3.9971,1.1416l-.6348-1.8398c1.2686-.8252,3.1084-1.3643,5.0439-1.3643,4.6953,0,5.8369,3.2041,5.8369,6.2812v5.7422c0,1.332.0635,2.6328.2539,3.6797h-2.5381ZM582.6893,360.5197c-3.0459-.0635-6.5029.4766-6.5029,3.458,0,1.8086,1.2051,2.665,2.6328,2.665,1.998,0,3.2676-1.2695,3.7109-2.5693.0957-.2861.1592-.6035.1592-.8887v-2.665Z"/>
    <path class="cls-1" d="M593.1287,348.5919v4.4102h3.9971v2.125h-3.9971v8.2793c0,1.9033.5391,2.9824,2.0938,2.9824.7295,0,1.2686-.0947,1.6172-.1904l.127,2.0938c-.5391.2217-1.3955.3809-2.4736.3809-1.3008,0-2.3477-.4121-3.0137-1.1738-.7939-.8252-1.0791-2.1895-1.0791-3.9971v-8.375h-2.3789v-2.125h2.3789v-3.6807l2.7285-.7295Z"/>
    <path class="cls-1" d="M603.3768,348.6876c.0312.9512-.666,1.7129-1.7764,1.7129-.9834,0-1.6816-.7617-1.6816-1.7129,0-.9834.7295-1.7451,1.7451-1.7451,1.0469,0,1.7129.7617,1.7129,1.7451ZM600.2674,368.3556v-15.3535h2.792v15.3535h-2.792Z"/>
    <path class="cls-1" d="M621.5868,360.5519c0,5.6787-3.9346,8.1523-7.6455,8.1523-4.1562,0-7.3604-3.0449-7.3604-7.8984,0-5.1396,3.3633-8.1533,7.6143-8.1533,4.4092,0,7.3916,3.2041,7.3916,7.8994ZM609.4051,360.7101c0,3.3633,1.9346,5.9004,4.6631,5.9004,2.6641,0,4.6631-2.5059,4.6631-5.9639,0-2.6006-1.3008-5.9004-4.5996-5.9004s-4.7266,3.0459-4.7266,5.9639Z"/>
    <path class="cls-1" d="M625.1102,357.1574c0-1.5859-.0312-2.8867-.127-4.1553h2.4746l.1592,2.5371h.0635c.7607-1.459,2.5371-2.8867,5.0752-2.8867,2.126,0,5.4248,1.2695,5.4248,6.5352v9.168h-2.792v-8.8506c0-2.4746-.9199-4.5361-3.5527-4.5361-1.8398,0-3.2676,1.2998-3.7432,2.8545-.127.3496-.1904.8252-.1904,1.3008v9.2314h-2.792v-11.1982Z"/>
    <path class="cls-1" d="M642.3397,365.5001c.8242.54,2.2832,1.1104,3.6797,1.1104,2.0303,0,2.9814-1.0146,2.9814-2.2842,0-1.332-.793-2.0615-2.8545-2.8232-2.7598-.9834-4.0605-2.5059-4.0605-4.3457,0-2.4746,1.998-4.5049,5.2979-4.5049,1.5537,0,2.918.4443,3.7744.9521l-.6973,2.0303c-.6035-.3809-1.7139-.8887-3.1406-.8887-1.6504,0-2.5703.9521-2.5703,2.0938,0,1.2695.9199,1.8398,2.9189,2.6016,2.665,1.0146,4.0283,2.3477,4.0283,4.6318,0,2.6963-2.0938,4.5996-5.7412,4.5996-1.6816,0-3.2363-.4121-4.3145-1.0469l.6982-2.126Z"/>
    <path class="cls-1" d="M328.2303,385.3341c1.2051-.2539,3.1089-.4443,5.0439-.4443,2.7598,0,4.5361.4756,5.8687,1.5547,1.1104.8242,1.7764,2.0938,1.7764,3.7744,0,2.0625-1.3643,3.8711-3.6162,4.6953v.0635c2.0303.5078,4.4092,2.1895,4.4092,5.3613,0,1.8398-.7295,3.2354-1.8081,4.2822-1.4907,1.3643-3.9019,1.999-7.3916,1.999-1.9033,0-3.3623-.127-4.2822-.2539v-21.0322ZM330.9901,394.09h2.5059c2.9189,0,4.6318-1.5234,4.6318-3.585,0-2.5059-1.9033-3.4893-4.6953-3.4893-1.2686,0-1.9985.0947-2.4424.1895v6.8848ZM330.9901,404.3361c.5391.0947,1.3325.127,2.3159.127,2.855,0,5.4878-1.0469,5.4878-4.1553,0-2.9189-2.5059-4.124-5.5195-4.124h-2.2842v8.1523Z"/>
    <path class="cls-1" d="M358.1795,402.2423c0,1.5859.0317,2.9824.127,4.1875h-2.4746l-.1582-2.5059h-.0635c-.73,1.2373-2.3477,2.8545-5.0757,2.8545-2.4111,0-5.2979-1.332-5.2979-6.7246v-8.9775h2.7915v8.501c0,2.9189.8882,4.8857,3.4263,4.8857,1.8716,0,3.1724-1.3008,3.6797-2.5381.1587-.4121.2539-.9199.2539-1.4277v-9.4209h2.7915v11.166Z"/>
    <path class="cls-1" d="M365.9232,386.7619c.0317.9512-.6665,1.7129-1.7769,1.7129-.9834,0-1.6812-.7617-1.6812-1.7129,0-.9834.7295-1.7451,1.7446-1.7451,1.0469,0,1.7134.7617,1.7134,1.7451ZM362.8143,406.4298v-15.3535h2.7915v15.3535h-2.7915Z"/>
    <path class="cls-1" d="M370.2386,383.9064h2.7915v22.5234h-2.7915v-22.5234Z"/>
    <path class="cls-1" d="M390.9862,383.9064v18.5576c0,1.3643.0312,2.9189.127,3.9658h-2.5068l-.126-2.665h-.0635c-.8564,1.7129-2.7285,3.0137-5.2344,3.0137-3.7119,0-6.5674-3.1406-6.5674-7.8037-.0312-5.1074,3.1406-8.248,6.8848-8.248,2.3467,0,3.9336,1.1104,4.6309,2.3477h.0635v-9.168h2.792ZM388.1942,397.3253c0-.3486-.0312-.8252-.127-1.1738-.4121-1.7764-1.9346-3.2354-4.0283-3.2354-2.8867,0-4.5996,2.5371-4.5996,5.9316,0,3.1094,1.5225,5.6787,4.5361,5.6787,1.8711,0,3.585-1.2373,4.0918-3.3311.0957-.3809.127-.7617.127-1.2051v-2.665Z"/>
    <path class="cls-1" d="M398.7303,386.7619c.0312.9512-.666,1.7129-1.7764,1.7129-.9834,0-1.6816-.7617-1.6816-1.7129,0-.9834.7295-1.7451,1.7451-1.7451,1.0469,0,1.7129.7617,1.7129,1.7451ZM395.6209,406.4298v-15.3535h2.792v15.3535h-2.792Z"/>
    <path class="cls-1" d="M403.0448,395.2316c0-1.5859-.0312-2.8867-.127-4.1553h2.4746l.1592,2.5371h.0635c.7607-1.459,2.5371-2.8867,5.0752-2.8867,2.126,0,5.4248,1.2695,5.4248,6.5352v9.168h-2.792v-8.8506c0-2.4746-.9199-4.5361-3.5527-4.5361-1.8398,0-3.2676,1.2998-3.7432,2.8545-.127.3496-.1904.8252-.1904,1.3008v9.2314h-2.792v-11.1982Z"/>
    <path class="cls-1" d="M433.8827,391.0763c-.0635,1.1104-.127,2.3467-.127,4.2188v8.9141c0,3.5215-.6973,5.6787-2.1885,7.0107-1.4912,1.3955-3.6484,1.8398-5.583,1.8398-1.8398,0-3.8701-.4443-5.1074-1.2686l.6973-2.126c1.0156.6348,2.6016,1.2061,4.5049,1.2061,2.8555,0,4.9492-1.4912,4.9492-5.3613v-1.7129h-.0635c-.8564,1.4277-2.5059,2.5693-4.8857,2.5693-3.8066,0-6.5352-3.2354-6.5352-7.4863,0-5.2031,3.3945-8.1533,6.916-8.1533,2.665,0,4.124,1.3965,4.79,2.665h.0635l.127-2.3154h2.4424ZM430.9959,397.1349c0-.4756-.0312-.8877-.1582-1.2686-.5078-1.6182-1.8721-2.9502-3.9023-2.9502-2.6641,0-4.5674,2.252-4.5674,5.8047,0,3.0137,1.5225,5.5205,4.5361,5.5205,1.7129,0,3.2676-1.0791,3.8701-2.8555.1582-.4756.2217-1.0156.2217-1.4912v-2.7598Z"/>
    <path class="cls-1" d="M456.283,396.4054h-8.3115v7.709h9.2627v2.3154h-12.0225v-21.3809h11.5469v2.3154h-8.7871v6.7568h8.3115v2.2842Z"/>
    <path class="cls-1" d="M462.0272,391.0763l2.1895,3.2988c.5703.8564,1.0469,1.6494,1.5537,2.5059h.0957c.5078-.9199,1.0146-1.7129,1.5225-2.5381l2.1572-3.2666h3.0137l-5.2344,7.4229,5.3926,7.9307h-3.1719l-2.252-3.458c-.6035-.8877-1.1104-1.7441-1.6504-2.6641h-.0635c-.5068.9199-1.0469,1.7441-1.6172,2.6641l-2.2207,3.458h-3.0771l5.4561-7.8359-5.2021-7.5176h3.1084Z"/>
    <path class="cls-1" d="M475.4168,396.088c0-1.9668-.0635-3.5527-.127-5.0117h2.5068l.127,2.6328h.0635c1.1416-1.8721,2.9502-2.9824,5.4561-2.9824,3.7119,0,6.5029,3.1406,6.5029,7.8037,0,5.5205-3.3623,8.248-6.9785,8.248-2.0303,0-3.8066-.8877-4.7275-2.4102h-.0635v8.3428h-2.7598v-16.623ZM478.1766,400.1808c0,.4121.0635.793.127,1.1416.5078,1.9355,2.1895,3.2676,4.1875,3.2676,2.9502,0,4.6641-2.4111,4.6641-5.9326,0-3.0771-1.6182-5.71-4.5684-5.71-1.9033,0-3.6797,1.3643-4.2197,3.458-.0947.3486-.1904.7617-.1904,1.1416v2.6338Z"/>
    <path class="cls-1" d="M495.0252,399.2609c.0635,3.7744,2.4746,5.3291,5.2666,5.3291,1.998,0,3.2031-.3486,4.25-.793l.4766,1.998c-.9834.4443-2.665.9521-5.1074.9521-4.7266,0-7.5508-3.1094-7.5508-7.7402s2.7285-8.2803,7.2012-8.2803c5.0127,0,6.3447,4.4102,6.3447,7.2334,0,.5703-.0635,1.0146-.0947,1.3008h-10.7861ZM503.2098,397.2619c.0322-1.7764-.7295-4.5361-3.8701-4.5361-2.8232,0-4.0605,2.6006-4.2822,4.5361h8.1523Z"/>
    <path class="cls-1" d="M509.3661,395.8664c0-1.8086-.0312-3.3633-.127-4.79h2.4434l.0947,3.0137h.127c.6982-2.0625,2.3789-3.3633,4.251-3.3633.3174,0,.5391.0322.793.0957v2.6328c-.2852-.0635-.5713-.0957-.9512-.0957-1.9668,0-3.3633,1.4912-3.7441,3.585-.0635.3809-.127.8252-.127,1.3008v8.1846h-2.7598v-10.5635Z"/>
    <path class="cls-1" d="M522.9774,386.7619c.0312.9512-.666,1.7129-1.7764,1.7129-.9834,0-1.6816-.7617-1.6816-1.7129,0-.9834.7295-1.7451,1.7451-1.7451,1.0469,0,1.7129.7617,1.7129,1.7451ZM519.868,406.4298v-15.3535h2.792v15.3535h-2.792Z"/>
    <path class="cls-1" d="M528.8465,399.2609c.0635,3.7744,2.4746,5.3291,5.2656,5.3291,1.999,0,3.2041-.3486,4.251-.793l.4766,1.998c-.9834.4443-2.665.9521-5.1074.9521-4.7266,0-7.5508-3.1094-7.5508-7.7402s2.7285-8.2803,7.2012-8.2803c5.0127,0,6.3447,4.4102,6.3447,7.2334,0,.5703-.0635,1.0146-.0947,1.3008h-10.7861ZM537.0311,397.2619c.0322-1.7764-.7295-4.5361-3.8701-4.5361-2.8232,0-4.0605,2.6006-4.2822,4.5361h8.1523Z"/>
    <path class="cls-1" d="M543.1883,395.2316c0-1.5859-.0312-2.8867-.127-4.1553h2.4746l.1592,2.5371h.0635c.7607-1.459,2.5371-2.8867,5.0752-2.8867,2.126,0,5.4248,1.2695,5.4248,6.5352v9.168h-2.792v-8.8506c0-2.4746-.9199-4.5361-3.5527-4.5361-1.8398,0-3.2676,1.2998-3.7432,2.8545-.127.3496-.1904.8252-.1904,1.3008v9.2314h-2.792v-11.1982Z"/>
    <path class="cls-1" d="M571.742,405.8585c-.7295.3809-2.3467.8887-4.4092.8887-4.6318,0-7.6455-3.1406-7.6455-7.8359,0-4.7266,3.2363-8.1523,8.248-8.1523,1.6504,0,3.1094.4121,3.8701.793l-.6338,2.1572c-.666-.3809-1.7129-.7295-3.2363-.7295-3.5205,0-5.4238,2.6006-5.4238,5.8047,0,3.5537,2.2832,5.7422,5.3291,5.7422,1.5859,0,2.6328-.4121,3.4258-.7617l.4756,2.0938Z"/>
    <path class="cls-1" d="M576.3758,399.2609c.0635,3.7744,2.4746,5.3291,5.2656,5.3291,1.999,0,3.2041-.3486,4.251-.793l.4766,1.998c-.9834.4443-2.665.9521-5.1074.9521-4.7266,0-7.5508-3.1094-7.5508-7.7402s2.7285-8.2803,7.2012-8.2803c5.0127,0,6.3447,4.4102,6.3447,7.2334,0,.5703-.0635,1.0146-.0947,1.3008h-10.7861ZM584.5604,397.2619c.0322-1.7764-.7295-4.5361-3.8701-4.5361-2.8232,0-4.0605,2.6006-4.2822,4.5361h8.1523Z"/>
    <path class="cls-1" d="M590.3377,403.5744c.8242.54,2.2832,1.1104,3.6797,1.1104,2.0303,0,2.9814-1.0146,2.9814-2.2842,0-1.332-.793-2.0615-2.8545-2.8232-2.7598-.9834-4.0605-2.5059-4.0605-4.3457,0-2.4746,1.998-4.5049,5.2979-4.5049,1.5537,0,2.918.4443,3.7744.9521l-.6973,2.0303c-.6035-.3809-1.7139-.8887-3.1406-.8887-1.6504,0-2.5703.9521-2.5703,2.0938,0,1.2695.9199,1.8398,2.9189,2.6016,2.665,1.0146,4.0283,2.3477,4.0283,4.6318,0,2.6963-2.0938,4.5996-5.7412,4.5996-1.6816,0-3.2363-.4121-4.3145-1.0469l.6982-2.126Z"/>
  </g>
</svg>